<svg width="137" height="50" viewBox="0 0 137 50" fill="none" xmlns="http://www.w3.org/2000/svg">
<g filter="url(#filter0_d_2_64)">
<path d="M17.0329 26.8358C16.8219 26.8358 16.6108 26.8282 16.3998 26.8168L9.33453 16.0543C9.33453 16.0505 9.33073 16.0505 9.33073 16.0467L6.51729 11.7645L4.62182 8.87929C4.24693 8.30672 4.03369 7.64354 4.00464 6.95977C3.9756 6.27602 4.13181 5.59711 4.45678 4.99481C4.78175 4.39252 5.26341 3.88921 5.85083 3.53807C6.43826 3.18694 7.10964 3.00103 7.79401 3H15.8132C15.0616 4.53316 14.6703 6.21775 14.6689 7.92518C14.6676 9.63266 15.0564 11.3178 15.8056 12.8521C15.8321 12.9049 15.8587 12.9615 15.89 13.0142C15.909 13.0484 15.928 13.0784 15.9503 13.1125L17.2266 15.0574L17.2342 15.065L21.1239 20.9823C21.1277 20.9861 21.1315 20.9937 21.1353 20.9975L22.404 22.9305C22.6295 23.2795 22.9632 23.5449 23.354 23.6861C23.7448 23.8273 24.171 23.8365 24.5675 23.7122C24.5675 23.7117 24.5676 23.7112 24.5678 23.7108C24.568 23.7103 24.5683 23.7099 24.5687 23.7096C24.569 23.7093 24.5694 23.7091 24.5699 23.7089C24.5703 23.7088 24.5709 23.7087 24.5713 23.7088C24.7186 23.6637 24.8595 23.6002 24.9908 23.5197C23.9479 24.5686 22.7083 25.4014 21.3429 25.9704C19.9775 26.5394 18.5133 26.8333 17.0342 26.8354L17.0329 26.8358Z" fill="url(#paint0_linear_2_64)"/>
<path d="M15.8056 12.8525C15.0549 11.3211 14.666 9.63771 14.669 7.93217C14.6683 7.35044 14.7138 6.76954 14.8049 6.19497C14.8056 6.18338 14.8081 6.17197 14.8125 6.16121C14.9839 5.06297 15.3214 3.99719 15.8132 3.0004H15.9909C16.1271 3.00021 16.2633 3.00781 16.3986 3.02319H16.4138C17.4669 3.1277 18.4435 3.61996 19.154 4.40433C19.8644 5.1887 20.2579 6.20916 20.2579 7.26742V10.1488H17.5504C17.0819 10.1484 16.6295 10.3201 16.2794 10.6313C15.9292 10.9426 15.7056 11.3717 15.6512 11.8371C15.6077 12.1833 15.6612 12.5349 15.8056 12.8525Z" fill="url(#paint1_linear_2_64)"/>
<path d="M20.828 33.5647L16.3984 26.8168C16.6095 26.8282 16.8205 26.8358 17.0315 26.8358C18.5107 26.8338 19.9749 26.5398 21.3403 25.9708C22.7056 25.4018 23.9453 24.569 24.9882 23.5201C25.235 23.3731 25.4443 23.1709 25.5997 22.9292L25.8906 22.4878C26.2566 22.0181 26.5837 21.5192 26.8685 20.9962C26.8743 20.9878 26.8794 20.979 26.8837 20.9696L32.0421 13.1113C32.2326 12.8228 32.3412 12.488 32.3565 12.1426C32.3718 11.7972 32.293 11.4541 32.1287 11.1499C31.9644 10.8457 31.7206 10.5918 31.4234 10.4152C31.1261 10.2386 30.7865 10.146 30.4408 10.1472H27.7333V7.26744C27.7334 6.1358 28.183 5.05052 28.9832 4.25033C29.7834 3.45013 30.8686 3.00053 32.0003 3.00042H40.1984C40.5905 2.9983 40.9805 3.05813 41.354 3.17769C41.8342 3.32566 42.278 3.57268 42.6569 3.90279C42.6991 3.93697 42.7362 3.97074 42.7776 4.00492C42.7886 4.01252 42.7988 4.0213 42.808 4.03109C43.4585 4.64312 43.8718 5.46542 43.9747 6.35266C44.0777 7.23988 43.8637 8.13499 43.3706 8.87971L28.4431 31.6288L27.1707 33.5656C26.8246 34.0904 26.3537 34.5211 25.8001 34.8191C25.2465 35.1171 24.6277 35.273 23.9991 35.2729C23.3704 35.2728 22.7516 35.1167 22.1982 34.8186C21.6447 34.5205 21.1739 34.0897 20.828 33.5647Z" fill="url(#paint2_linear_2_64)"/>
<path d="M25.8918 22.4895L26.8698 20.9979C26.585 21.5209 26.2579 22.0197 25.8918 22.4895Z" fill="url(#paint3_linear_2_64)"/>
<g style="mix-blend-mode:screen" opacity="0.25">
<path d="M24.0038 34.5203C23.4985 34.5247 23.0002 34.4014 22.5553 34.1617C22.1103 33.922 21.7332 33.5738 21.4588 33.1494L18.249 28.2594C21.1946 29.9586 26.1226 30.0342 33.6407 22.3383L26.5417 33.1532C26.2683 33.5767 25.8923 33.9241 25.4486 34.1632C25.0048 34.4022 24.5078 34.525 24.0038 34.5203Z" fill="white"/>
</g>
<g style="mix-blend-mode:multiply" opacity="0.3">
<path d="M30.7596 10.3249L30.8018 10.3287H30.768C30.7634 10.3249 30.7634 10.3249 30.7596 10.3249Z" fill="black"/>
</g>
<g style="mix-blend-mode:multiply" opacity="0.3">
<path d="M31.8391 12.9771L31.8205 13.0146L31.8281 12.9923C31.8319 12.9885 31.8361 12.9809 31.8391 12.9771Z" fill="black"/>
</g>
<g style="mix-blend-mode:multiply" opacity="0.3">
<path d="M17.0331 26.8358C17.475 26.7603 17.9169 26.6995 18.3512 26.6054C18.7855 26.5113 19.2194 26.4201 19.6423 26.288C20.0728 26.1749 20.4885 26.0124 20.9039 25.8689C21.3154 25.7064 21.723 25.5443 22.116 25.3443C22.5115 25.1526 22.8948 24.9369 23.264 24.6985C23.6333 24.4656 23.9865 24.2081 24.3213 23.9278C24.4057 23.8561 24.4838 23.7843 24.5665 23.7126C24.5665 23.7121 24.5666 23.7116 24.5667 23.7112C24.567 23.7107 24.5673 23.7103 24.5676 23.71C24.568 23.7097 24.5684 23.7094 24.5689 23.7093C24.5693 23.7092 24.5698 23.7091 24.5702 23.7092C24.7175 23.6641 24.8585 23.6006 24.9898 23.5201C25.2366 23.3731 25.446 23.1708 25.6014 22.9292L25.8922 22.4878L26.8701 20.9962C26.876 20.9878 26.881 20.9789 26.8853 20.9696L32.0437 13.1113C32.2342 12.8227 32.3429 12.4879 32.3581 12.1426C32.3734 11.7971 32.2947 11.4541 32.1303 11.1499C31.966 10.8457 31.7222 10.5918 31.425 10.4152C31.1278 10.2386 30.7881 10.146 30.4424 10.1471H27.7349V7.26743C27.7839 8.19596 27.8066 9.11774 27.837 10.0429C28.8263 10.0053 29.8118 9.99014 30.8011 9.97114H30.8202L30.8425 9.97494C31.0075 10.018 31.1681 10.0762 31.3224 10.1488C31.4754 10.2196 31.6209 10.3055 31.7567 10.4054C31.8957 10.5098 32.023 10.6288 32.1366 10.7604C32.1897 10.8283 32.2387 10.9039 32.2877 10.9756C32.3354 11.051 32.3758 11.1307 32.4084 11.2137C32.4471 11.2944 32.4763 11.3794 32.4953 11.4669C32.5216 11.5517 32.5382 11.6392 32.5447 11.7278C32.5551 11.8142 32.56 11.9011 32.5595 11.9882L32.5447 12.2486C32.5222 12.4169 32.4881 12.5834 32.4426 12.747L32.2687 13.2155L32.2649 13.2265L32.2501 13.2493C31.2908 14.7522 30.3128 16.2459 29.3379 17.7392L27.8607 19.9761L26.3767 22.2003C26.1201 22.5777 25.8934 22.9288 25.614 23.3255C25.3094 23.6751 24.97 23.9927 24.6011 24.2735C24.2402 24.5517 23.8618 24.8064 23.4683 25.0362C23.0768 25.2652 22.6721 25.4707 22.2561 25.6515C21.8446 25.8406 21.4213 25.9913 20.9946 26.1424C20.8587 26.1804 20.719 26.2217 20.5831 26.2559C20.2847 26.3429 19.9922 26.4218 19.6883 26.4788C19.254 26.5843 18.8083 26.6476 18.3664 26.7164C17.9245 26.7852 17.4788 26.794 17.0331 26.8358Z" fill="black"/>
</g>
<g style="mix-blend-mode:screen" opacity="0.35">
<path d="M28.4444 31.6279C29.0032 30.6685 29.5886 29.7286 30.1626 28.7764C30.7442 27.8099 31.352 26.862 31.9488 25.9031L33.7501 23.0406L35.5814 20.1934C36.8048 18.3012 38.0409 16.416 39.2897 14.5378L41.1741 11.7286C41.7933 10.7958 42.4428 9.87448 43.0734 8.94553C43.1941 8.68849 43.3224 8.43188 43.4398 8.17485L43.5756 7.76714C43.6267 7.63423 43.6633 7.4963 43.685 7.35563L43.7567 6.93356C43.7681 6.79386 43.7605 6.65416 43.7681 6.5115C43.7756 6.36994 43.7643 6.228 43.7344 6.08944C43.7233 5.94794 43.6949 5.80834 43.65 5.67371C43.6125 5.53609 43.5658 5.40114 43.5103 5.2698C43.4461 5.14318 43.3891 5.00939 43.314 4.88995C43.2388 4.7705 43.1591 4.64853 43.0721 4.53162C42.9738 4.42188 42.8835 4.30877 42.7852 4.20283C42.37 3.78343 41.8859 3.43851 41.3539 3.18314C41.6342 3.28472 41.9036 3.4138 42.1584 3.56848C42.2894 3.64186 42.4154 3.72378 42.5357 3.81369C42.6201 3.87447 42.6982 3.94031 42.7775 4.01037C42.7886 4.01797 42.7988 4.02674 42.8079 4.03654C43.4585 4.64857 43.8717 5.47087 43.9747 6.35811C44.0777 7.24534 43.8636 8.14045 43.3706 8.88517L28.4444 31.6279Z" fill="white"/>
</g>
<g style="mix-blend-mode:screen" opacity="0.35">
<path d="M20.2578 9.57487C20.2578 9.57487 20.1519 9.03463 20.0763 8.22427C20.0539 8.0238 20.0341 7.80221 20.0198 7.57092C20.0054 7.33964 19.9898 7.08766 19.9594 6.85721C19.9442 6.73988 19.9328 6.61917 19.9172 6.49466C19.883 6.37775 19.8564 6.26042 19.8302 6.13971L19.788 5.95822L19.7201 5.7894C19.6808 5.67205 19.6342 5.5573 19.5804 5.44584L19.4069 5.12086C19.3466 5.01534 19.2672 4.9208 19.1992 4.82246C19.1261 4.72648 19.048 4.63448 18.965 4.54686C18.8882 4.45519 18.8035 4.37046 18.7118 4.29362C18.54 4.14122 18.3596 3.99875 18.1716 3.86692C17.9829 3.74958 17.8052 3.63647 17.6317 3.54573C17.4583 3.45499 17.2916 3.37226 17.1443 3.31149C16.9936 3.24353 16.861 3.19078 16.7517 3.14941C16.5289 3.065 16.3968 3.0228 16.3968 3.0228H16.4119C17.4651 3.1273 18.4417 3.61956 19.1521 4.40393C19.8625 5.1883 20.256 6.20876 20.2561 7.26704L20.2578 9.57487Z" fill="white"/>
</g>
<g style="mix-blend-mode:multiply" opacity="0.3">
<path d="M21.1226 20.9827C20.8808 20.6805 20.6465 20.3707 20.4165 20.0614C20.1823 19.744 19.9404 19.4304 19.7104 19.1134C19.2461 18.4753 18.7962 17.8333 18.3434 17.1876C17.8977 16.538 17.4482 15.8961 17.0177 15.2389C16.5758 14.5856 16.1453 13.9305 15.719 13.2679L15.7114 13.2527L15.7076 13.2451C15.581 12.9695 15.4244 12.7015 15.3185 12.4145C15.1991 12.1322 15.0957 11.8435 15.0087 11.5497C14.9146 11.2584 14.8353 10.9626 14.771 10.6634C14.7183 10.3654 14.6575 10.067 14.6237 9.7648C14.5815 9.46261 14.5672 9.15703 14.552 8.85484C14.5381 8.5529 14.5393 8.25045 14.5558 7.94868C14.5795 7.35762 14.6629 6.77051 14.8048 6.19627C14.8055 6.18467 14.8081 6.17327 14.8124 6.16251C14.7824 6.46048 14.7786 6.75887 14.7702 7.05727C14.7618 7.35568 14.7778 7.65028 14.7964 7.94868C14.8149 8.24707 14.8457 8.53745 14.8808 8.82825C14.923 9.12369 14.9677 9.41365 15.0243 9.70065C15.0737 9.99145 15.1509 10.2709 15.2205 10.5579C15.3113 10.8335 15.3792 11.1205 15.4852 11.3923C15.5341 11.5434 15.5907 11.6907 15.651 11.838C15.6077 12.1844 15.6613 12.5361 15.8059 12.8539C15.8325 12.9066 15.8591 12.9632 15.8903 13.0159C15.9093 13.0501 15.9283 13.0801 15.9507 13.1143L17.227 15.0591L17.2346 15.0667L21.1226 20.9827Z" fill="black"/>
</g>
<g style="mix-blend-mode:screen" opacity="0.35">
<path d="M9.32952 16.0472L6.51607 11.765L4.62059 8.87982C4.24571 8.30725 4.03247 7.64407 4.00342 6.96029C3.97437 6.27653 4.13059 5.59763 4.45556 4.99534C4.78053 4.39304 5.26219 3.88973 5.84962 3.53859C6.43704 3.18746 7.10842 3.00155 7.79279 3.00052H12.4599C12.5735 3.00432 12.6866 3.01571 12.7976 3.02331C11.8952 3.09506 10.9967 3.12503 10.0939 3.17778C9.19911 3.21577 8.31151 3.24953 7.41674 3.27233C7.29549 3.29713 7.17572 3.32869 7.05799 3.36687C6.93137 3.40907 6.80856 3.45381 6.68785 3.50277C6.44572 3.59884 6.21205 3.71503 5.98933 3.85013C5.87959 3.91808 5.77831 3.99742 5.67195 4.06917C5.57023 4.14852 5.47949 4.238 5.38115 4.31819C5.28703 4.40513 5.21232 4.50727 5.12453 4.59759C5.04278 4.69394 4.96829 4.79622 4.90168 4.90359C4.82837 5.00484 4.76638 5.11382 4.71682 5.22857C4.65719 5.33912 4.6091 5.45552 4.57332 5.57593L4.46358 5.93848L4.40703 6.3158L4.38044 6.50488L4.38424 6.70114L4.38044 7.08648C4.38424 7.21859 4.41083 7.34689 4.42603 7.479L4.46824 7.81665C5.31404 9.15766 6.13973 10.5082 6.9453 11.8684L7.55729 12.9067C7.76115 13.254 7.965 13.5976 8.16126 13.9488C8.55167 14.6464 8.95178 15.3411 9.32952 16.0472Z" fill="white"/>
</g>
</g>
<g filter="url(#filter1_d_2_64)">
<path d="M53.24 35.3C51.68 35.3 50.27 34.94 49.01 34.22C47.75 33.5 46.75 32.53 46.01 31.31C45.27 30.09 44.9 28.72 44.9 27.2C44.9 25.68 45.26 24.31 45.98 23.09C46.72 21.85 47.72 20.87 48.98 20.15C50.26 19.43 51.68 19.07 53.24 19.07C54.8 19.07 56.21 19.43 57.47 20.15C58.75 20.87 59.75 21.85 60.47 23.09C61.21 24.31 61.58 25.68 61.58 27.2C61.58 28.72 61.21 30.09 60.47 31.31C59.75 32.53 58.76 33.5 57.5 34.22C56.24 34.94 54.82 35.3 53.24 35.3ZM53.24 31.73C54.06 31.73 54.79 31.53 55.43 31.13C56.09 30.73 56.61 30.19 56.99 29.51C57.39 28.81 57.59 28.04 57.59 27.2C57.59 26.34 57.39 25.57 56.99 24.89C56.61 24.21 56.09 23.67 55.43 23.27C54.79 22.85 54.06 22.64 53.24 22.64C52.44 22.64 51.71 22.85 51.05 23.27C50.39 23.67 49.87 24.21 49.49 24.89C49.11 25.57 48.92 26.34 48.92 27.2C48.92 28.04 49.11 28.81 49.49 29.51C49.87 30.19 50.39 30.73 51.05 31.13C51.71 31.53 52.44 31.73 53.24 31.73ZM86.4008 35.27C85.2808 35.27 84.2908 35.07 83.4308 34.67C82.5708 34.25 81.9008 33.68 81.4208 32.96C80.9408 32.24 80.7008 31.41 80.7008 30.47C80.7008 28.97 81.2608 27.81 82.3808 26.99C83.5208 26.15 85.0808 25.73 87.0608 25.73C88.4208 25.73 89.7008 25.94 90.9008 26.36V25.22C90.9008 24.32 90.6208 23.64 90.0608 23.18C89.5008 22.72 88.6808 22.49 87.6008 22.49C86.9408 22.49 86.2308 22.6 85.4708 22.82C84.7108 23.02 83.8308 23.34 82.8308 23.78L81.3308 20.75C82.5708 20.19 83.7508 19.77 84.8708 19.49C86.0108 19.21 87.1508 19.07 88.2908 19.07C90.3908 19.07 92.0208 19.58 93.1808 20.6C94.3608 21.6 94.9508 23.02 94.9508 24.86V35H90.9008V33.89C90.2608 34.37 89.5708 34.72 88.8308 34.94C88.0908 35.16 87.2808 35.27 86.4008 35.27ZM84.6008 30.38C84.6008 30.98 84.8608 31.46 85.3808 31.82C85.9008 32.16 86.5908 32.33 87.4508 32.33C88.1308 32.33 88.7608 32.25 89.3408 32.09C89.9208 31.91 90.4408 31.65 90.9008 31.31V29.03C90.4008 28.83 89.8808 28.68 89.3408 28.58C88.8008 28.48 88.2208 28.43 87.6008 28.43C86.6608 28.43 85.9208 28.61 85.3808 28.97C84.8608 29.31 84.6008 29.78 84.6008 30.38ZM124.52 35.3C122.96 35.3 121.54 34.94 120.26 34.22C119 33.5 118 32.53 117.26 31.31C116.52 30.09 116.15 28.72 116.15 27.2C116.15 25.68 116.5 24.31 117.2 23.09C117.92 21.87 118.89 20.9 120.11 20.18C121.33 19.46 122.69 19.1 124.19 19.1C125.69 19.1 127.02 19.47 128.18 20.21C129.34 20.95 130.25 21.95 130.91 23.21C131.59 24.47 131.93 25.9 131.93 27.5V28.58H120.35C120.53 29.2 120.82 29.76 121.22 30.26C121.64 30.76 122.15 31.15 122.75 31.43C123.37 31.71 124.03 31.85 124.73 31.85C125.43 31.85 126.07 31.74 126.65 31.52C127.25 31.3 127.76 30.99 128.18 30.59L130.88 33.05C129.92 33.83 128.93 34.4 127.91 34.76C126.91 35.12 125.78 35.3 124.52 35.3ZM120.29 25.64H127.88C127.74 25.02 127.48 24.48 127.1 24.02C126.74 23.54 126.3 23.17 125.78 22.91C125.28 22.63 124.72 22.49 124.1 22.49C123.46 22.49 122.88 22.62 122.36 22.88C121.84 23.14 121.4 23.51 121.04 23.99C120.7 24.45 120.45 25 120.29 25.64Z" fill="#08ADF8"/>
<path d="M65.6363 41.45C65.2763 41.45 64.9263 41.43 64.5863 41.39C64.2663 41.37 63.9963 41.34 63.7763 41.3V37.76C64.1763 37.84 64.6563 37.88 65.2163 37.88C66.7163 37.88 67.7563 37.17 68.3363 35.75L68.5763 35.15L62.4863 19.37H67.0163L70.9163 30.02L75.3263 19.37H79.7663L72.5663 36.26C72.0263 37.52 71.4363 38.53 70.7963 39.29C70.1563 40.05 69.4163 40.6 68.5763 40.94C67.7563 41.28 66.7763 41.45 65.6363 41.45ZM105.921 41.42C104.721 41.42 103.561 41.29 102.441 41.03C101.321 40.79 100.311 40.44 99.4114 39.98L100.851 36.8C101.711 37.22 102.551 37.53 103.371 37.73C104.191 37.93 105.011 38.03 105.831 38.03C107.051 38.03 107.971 37.77 108.591 37.25C109.231 36.73 109.551 35.95 109.551 34.91V33.68C108.271 34.62 106.841 35.09 105.261 35.09C103.781 35.09 102.441 34.74 101.241 34.04C100.061 33.32 99.1114 32.35 98.3914 31.13C97.6914 29.91 97.3414 28.56 97.3414 27.08C97.3414 25.6 97.6914 24.26 98.3914 23.06C99.1114 21.86 100.081 20.91 101.301 20.21C102.521 19.49 103.881 19.13 105.381 19.13C106.141 19.13 106.881 19.24 107.601 19.46C108.321 19.68 108.991 19.99 109.611 20.39V19.37H113.661V34.97C113.661 37.03 112.991 38.62 111.651 39.74C110.331 40.86 108.421 41.42 105.921 41.42ZM105.891 31.61C106.651 31.61 107.341 31.49 107.961 31.25C108.581 30.99 109.111 30.63 109.551 30.17V24.05C109.111 23.61 108.571 23.27 107.931 23.03C107.311 22.77 106.641 22.64 105.921 22.64C105.061 22.64 104.291 22.84 103.611 23.24C102.931 23.62 102.391 24.15 101.991 24.83C101.591 25.49 101.391 26.24 101.391 27.08C101.391 27.94 101.581 28.71 101.961 29.39C102.361 30.07 102.901 30.61 103.581 31.01C104.281 31.41 105.051 31.61 105.891 31.61Z" fill="white"/>
</g>
<defs>
<filter id="filter0_d_2_64" x="0" y="3" width="48" height="40.2729" filterUnits="userSpaceOnUse" color-interpolation-filters="sRGB">
<feFlood flood-opacity="0" result="BackgroundImageFix"/>
<feColorMatrix in="SourceAlpha" type="matrix" values="0 0 0 0 0 0 0 0 0 0 0 0 0 0 0 0 0 0 127 0" result="hardAlpha"/>
<feOffset dy="4"/>
<feGaussianBlur stdDeviation="2"/>
<feComposite in2="hardAlpha" operator="out"/>
<feColorMatrix type="matrix" values="0 0 0 0 0 0 0 0 0 0 0 0 0 0 0 0 0 0 0.25 0"/>
<feBlend mode="normal" in2="BackgroundImageFix" result="effect1_dropShadow_2_64"/>
<feBlend mode="normal" in="SourceGraphic" in2="effect1_dropShadow_2_64" result="shape"/>
</filter>
<filter id="filter1_d_2_64" x="40.9" y="19.07" width="95.03" height="30.38" filterUnits="userSpaceOnUse" color-interpolation-filters="sRGB">
<feFlood flood-opacity="0" result="BackgroundImageFix"/>
<feColorMatrix in="SourceAlpha" type="matrix" values="0 0 0 0 0 0 0 0 0 0 0 0 0 0 0 0 0 0 127 0" result="hardAlpha"/>
<feOffset dy="4"/>
<feGaussianBlur stdDeviation="2"/>
<feComposite in2="hardAlpha" operator="out"/>
<feColorMatrix type="matrix" values="0 0 0 0 0 0 0 0 0 0 0 0 0 0 0 0 0 0 0.25 0"/>
<feBlend mode="normal" in2="BackgroundImageFix" result="effect1_dropShadow_2_64"/>
<feBlend mode="normal" in="SourceGraphic" in2="effect1_dropShadow_2_64" result="shape"/>
</filter>
<linearGradient id="paint0_linear_2_64" x1="-341.824" y1="194.569" x2="-317.98" y2="194.569" gradientUnits="userSpaceOnUse">
<stop stop-color="#C33764"/>
<stop offset="1" stop-color="#1D2671"/>
</linearGradient>
<linearGradient id="paint1_linear_2_64" x1="-339.155" y1="188.349" x2="-333.596" y2="192.397" gradientUnits="userSpaceOnUse">
<stop stop-color="#E2316A"/>
<stop offset="1" stop-color="#1D2671"/>
</linearGradient>
<linearGradient id="paint2_linear_2_64" x1="-312.585" y1="188.406" x2="-352.206" y2="171" gradientUnits="userSpaceOnUse">
<stop stop-color="#08ADF8"/>
<stop offset="1" stop-color="#4700FC"/>
</linearGradient>
<linearGradient id="paint3_linear_2_64" x1="-323.913" y1="182.686" x2="-322.421" y2="182.686" gradientUnits="userSpaceOnUse">
<stop stop-color="#FCC400"/>
<stop offset="0.162" stop-color="#FBC000"/>
<stop offset="0.307" stop-color="#F8B500"/>
<stop offset="0.446" stop-color="#F3A300"/>
<stop offset="0.581" stop-color="#EB8900"/>
<stop offset="0.712" stop-color="#E26800"/>
<stop offset="0.842" stop-color="#D73F00"/>
<stop offset="0.967" stop-color="#CA1000"/>
<stop offset="1" stop-color="#C70300"/>
</linearGradient>
</defs>
</svg>
